<svg xmlns="http://www.w3.org/2000/svg" viewBox="0 0 64 64">
  <defs>
    <linearGradient id="bg" x1="0" x2="1" y1="0" y2="1">
      <stop offset="0%" stop-color="#14b8a6" />
      <stop offset="100%" stop-color="#059669" />
    </linearGradient>
  </defs>
  <rect width="64" height="64" rx="14" fill="url(#bg)" />
  <path
    fill="#ffffff"
    d="M22 12h20v7h6v6c0 7-5 12-12 13v4h6v5H22v-5h6v-4c-7-1-12-6-12-13v-6h6v-7zm-1 12v1c0 4 2.6 7 7 8v-9h-7zm22 9c4.4-1 7-4 7-8v-1h-7v9zm-15-16v14c0 5 3 8 4 8s4-3 4-8V17h-8z"
  />
</svg>
